<svg width="30" height="29" viewBox="0 0 30 29" fill="none" xmlns="http://www.w3.org/2000/svg">
<path d="M2.72727 0C1.23545 0 0 1.18604 0 2.61818V26.1818C0 27.614 1.23545 28.8 2.72727 28.8H27.2727C28.7645 28.8 30 27.614 30 26.1818V2.61818C30 1.18604 28.7645 0 27.2727 0H2.72727ZM2.72727 2.61818H27.2727V26.1818H20.1982V17.3455H23.7355L24.2468 13.4182H20.1995V10.8812C20.1995 9.73702 20.4914 8.95942 22.2014 8.95942H24.4173V5.4C24.0395 5.35418 22.7291 5.27695 21.2223 5.27695C18.0791 5.27695 15.9382 7.09265 15.9382 10.4727V13.4182H12.3586V17.3455H15.9368V26.1818H2.72727V2.61818Z" fill="white"/>
</svg>
