<svg width="30" height="29" viewBox="0 0 30 29" fill="none" xmlns="http://www.w3.org/2000/svg">
<path d="M14.996 7.01141C10.7369 7.01141 7.29966 10.3112 7.29966 14.4C7.29966 18.4888 10.7369 21.7886 14.996 21.7886C19.255 21.7886 22.6923 18.4888 22.6923 14.4C22.6923 10.3112 19.255 7.01141 14.996 7.01141ZM14.996 19.202C12.2417 19.202 9.99393 17.0442 9.99393 14.4C9.99393 11.7558 12.2417 9.59796 14.996 9.59796C17.7503 9.59796 19.998 11.7558 19.998 14.4C19.998 17.0442 17.7503 19.202 14.996 19.202ZM23.0075 4.98684C22.0131 4.98684 21.2101 5.75776 21.2101 6.71241C21.2101 7.66705 22.0131 8.43797 23.0075 8.43797C24.0019 8.43797 24.8049 7.67065 24.8049 6.71241C24.8052 6.48572 24.7589 6.26121 24.6687 6.05172C24.5785 5.84224 24.4461 5.6519 24.2791 5.49161C24.1122 5.33132 23.9139 5.20423 23.6957 5.11761C23.4775 5.03099 23.2436 4.98656 23.0075 4.98684ZM29.9983 14.4C29.9983 12.4115 30.0171 10.4409 29.9008 8.45598C29.7844 6.15043 29.2366 4.10424 27.4804 2.4183C25.7205 0.728763 23.5929 0.20641 21.1913 0.0947348C19.1199 -0.0169407 17.0673 0.00107152 14.9997 0.00107152C12.9284 0.00107152 10.8758 -0.0169407 8.80815 0.0947348C6.40658 0.20641 4.27517 0.732365 2.51902 2.4183C0.759114 4.10785 0.215007 6.15043 0.0986802 8.45598C-0.0176462 10.4445 0.00111615 12.4151 0.00111615 14.4C0.00111615 16.3849 -0.0176462 18.3591 0.0986802 20.344C0.215007 22.6496 0.762867 24.6958 2.51902 26.3817C4.27893 28.0712 6.40658 28.5936 8.80815 28.7053C10.8795 28.8169 12.9321 28.7989 14.9997 28.7989C17.0711 28.7989 19.1237 28.8169 21.1913 28.7053C23.5929 28.5936 25.7243 28.0676 27.4804 26.3817C29.2403 24.6922 29.7844 22.6496 29.9008 20.344C30.0208 18.3591 29.9983 16.3885 29.9983 14.4ZM26.6962 22.8945C26.4222 23.5502 26.092 24.0401 25.5629 24.5445C25.0338 25.0524 24.5272 25.3694 23.8443 25.6324C21.8705 26.3853 17.1837 26.216 14.996 26.216C12.8083 26.216 8.1177 26.3853 6.1439 25.636C5.46095 25.373 4.95062 25.056 4.42527 24.5481C3.89618 24.0401 3.56596 23.5538 3.29203 22.8981C2.51152 20.9997 2.68788 16.5002 2.68788 14.4C2.68788 12.2998 2.51152 7.79674 3.29203 5.90186C3.56596 5.24622 3.89618 4.75628 4.42527 4.25194C4.95437 3.7476 5.46095 3.42699 6.1439 3.16401C8.1177 2.4147 12.8083 2.58402 14.996 2.58402C17.1837 2.58402 21.8742 2.4147 23.848 3.16401C24.531 3.42699 25.0413 3.744 25.5667 4.25194C26.0958 4.75989 26.426 5.24622 26.6999 5.90186C27.4804 7.79674 27.3041 12.2998 27.3041 14.4C27.3041 16.5002 27.4804 20.9997 26.6962 22.8945Z" fill="white"/>
</svg>
