<svg width="30" height="27" viewBox="0 0 30 27" fill="none" xmlns="http://www.w3.org/2000/svg">
<path d="M27.779 0.192102C27.4085 0.217979 27.0449 0.301421 26.7022 0.439174H26.6976C26.3687 0.564372 24.8049 1.1959 22.4274 2.15317L13.9078 5.59777C7.79444 8.0685 1.78498 10.5015 1.78498 10.5015L1.85654 10.475C1.85654 10.475 1.44221 10.6057 1.00942 10.8904C0.742045 11.0538 0.511968 11.2675 0.333112 11.5186C0.120755 11.8178 -0.0500533 12.2754 0.0134228 12.7485C0.117293 13.5484 0.657417 14.0281 1.0452 14.2929C1.4376 14.5611 1.81153 14.6863 1.81153 14.6863H1.82076L7.45629 16.5088C7.70904 17.2877 9.1736 21.9101 9.52561 22.9748C9.73335 23.6108 9.93532 24.0085 10.1881 24.3121C10.3104 24.4672 10.4535 24.5969 10.6255 24.701C10.7149 24.7509 10.8102 24.7903 10.9094 24.8184L10.8517 24.8051C10.869 24.8096 10.8828 24.8229 10.8955 24.8273C10.9417 24.8395 10.9729 24.8439 11.0317 24.8528C11.9239 25.112 12.6406 24.5802 12.6406 24.5802L12.6809 24.5492L16.0083 21.6408L21.5849 25.748L21.7119 25.8001C22.8741 26.2898 24.0513 26.0172 24.6733 25.5364C25.3 25.0522 25.5435 24.4329 25.5435 24.4329L25.5839 24.3332L29.8934 3.13924C30.0157 2.61629 30.0469 2.12658 29.9118 1.65127C29.7726 1.17023 29.4511 0.756498 29.0105 0.491247C28.6405 0.275325 28.2115 0.171105 27.779 0.192102ZM27.6625 2.46339C27.6578 2.53319 27.6717 2.52544 27.6394 2.6595V2.67169L23.3703 23.6451C23.3519 23.675 23.3207 23.7404 23.2353 23.8058C23.1453 23.8745 23.0737 23.9177 22.6986 23.7748L15.8778 18.7546L11.7577 22.3599L12.6232 17.0528L23.7673 7.08132C24.2267 6.67138 24.0732 6.58496 24.0732 6.58496C24.1055 6.08195 23.3796 6.4376 23.3796 6.4376L9.3271 14.7948L9.32248 14.7727L2.58709 12.5956V12.5911L2.56978 12.5878C2.58159 12.584 2.59315 12.5796 2.6044 12.5745L2.64133 12.5568L2.67711 12.5446C2.67711 12.5446 8.69118 10.1116 14.8045 7.64083C17.8652 6.40325 20.949 5.15681 23.3207 4.19511C25.6924 3.23896 27.4455 2.53763 27.5447 2.49996C27.6394 2.4645 27.5944 2.4645 27.6625 2.4645V2.46339Z" fill="white"/>
</svg>
